<mxfile host="app.diagrams.net" modified="2023-05-04T07:20:09.199Z" agent="Mozilla/5.0 (X11; Ubuntu; Linux x86_64; rv:109.0) Gecko/20100101 Firefox/112.0" etag="NAVP5Lrvo3mG-hQb6AiF" version="21.2.7" type="device">
  <diagram name="Page-1" id="czC99iCuornQwLa_YbQF">
    <mxGraphModel dx="717" dy="395" grid="1" gridSize="10" guides="1" tooltips="1" connect="1" arrows="1" fold="1" page="1" pageScale="1" pageWidth="827" pageHeight="1169" math="0" shadow="0">
      <root>
        <mxCell id="0" />
        <mxCell id="1" parent="0" />
        <mxCell id="h9T01SDBne9uhSM7r6di-158" value="" style="ellipse;shape=cloud;whiteSpace=wrap;html=1;" vertex="1" parent="1">
          <mxGeometry x="412" y="732" width="288.5" height="170" as="geometry" />
        </mxCell>
        <mxCell id="h9T01SDBne9uhSM7r6di-1" value="" style="verticalLabelPosition=bottom;verticalAlign=top;html=1;shadow=0;dashed=0;strokeWidth=1;shape=mxgraph.android.phone2;strokeColor=#c0c0c0;" vertex="1" parent="1">
          <mxGeometry x="40" y="130" width="300" height="500" as="geometry" />
        </mxCell>
        <mxCell id="h9T01SDBne9uhSM7r6di-6" value="" style="endArrow=none;html=1;rounded=0;exitX=0.037;exitY=0.827;exitDx=0;exitDy=0;exitPerimeter=0;entryX=0.965;entryY=0.828;entryDx=0;entryDy=0;entryPerimeter=0;" edge="1" parent="1" source="h9T01SDBne9uhSM7r6di-1" target="h9T01SDBne9uhSM7r6di-1">
          <mxGeometry width="50" height="50" relative="1" as="geometry">
            <mxPoint x="320" y="440" as="sourcePoint" />
            <mxPoint x="370" y="390" as="targetPoint" />
          </mxGeometry>
        </mxCell>
        <mxCell id="h9T01SDBne9uhSM7r6di-7" value="&lt;font style=&quot;font-size: 18px;&quot;&gt;Mes livres&lt;/font&gt;" style="text;html=1;strokeColor=none;fillColor=none;align=center;verticalAlign=middle;whiteSpace=wrap;rounded=0;" vertex="1" parent="1">
          <mxGeometry x="145" y="180" width="90" height="30" as="geometry" />
        </mxCell>
        <mxCell id="h9T01SDBne9uhSM7r6di-9" value="" style="shape=rect;fillColor=#F6F6F6;strokeColor=none;" vertex="1" parent="1">
          <mxGeometry x="60" y="510" width="260" height="20" as="geometry" />
        </mxCell>
        <mxCell id="h9T01SDBne9uhSM7r6di-10" value="" style="html=1;strokeWidth=1;shadow=0;dashed=0;shape=mxgraph.ios7ui.marginRect;rx=3;ry=3;rectMargin=5;fillColor=#E4E4E4;strokeColor=none;" vertex="1" parent="h9T01SDBne9uhSM7r6di-9">
          <mxGeometry width="260" height="20" as="geometry" />
        </mxCell>
        <mxCell id="h9T01SDBne9uhSM7r6di-11" value="Search" style="shape=mxgraph.ios7.icons.looking_glass;strokeColor=#878789;fillColor=none;fontColor=#878789;labelPosition=right;verticalLabelPosition=middle;align=left;verticalAlign=middle;fontSize=6;fontStyle=0;spacingTop=2;sketch=0;html=1;" vertex="1" parent="h9T01SDBne9uhSM7r6di-9">
          <mxGeometry x="0.5" y="0.5" width="6" height="6" relative="1" as="geometry">
            <mxPoint x="-17" y="-3" as="offset" />
          </mxGeometry>
        </mxCell>
        <mxCell id="h9T01SDBne9uhSM7r6di-12" value="" style="rounded=0;whiteSpace=wrap;html=1;" vertex="1" parent="1">
          <mxGeometry x="60" y="220" width="260" height="50" as="geometry" />
        </mxCell>
        <mxCell id="h9T01SDBne9uhSM7r6di-14" value="" style="ellipse;whiteSpace=wrap;html=1;aspect=fixed;" vertex="1" parent="1">
          <mxGeometry x="60" y="220" width="50" height="50" as="geometry" />
        </mxCell>
        <mxCell id="h9T01SDBne9uhSM7r6di-15" value="Image" style="text;html=1;strokeColor=none;fillColor=none;align=center;verticalAlign=middle;whiteSpace=wrap;rounded=0;" vertex="1" parent="1">
          <mxGeometry x="70" y="235" width="30" height="20" as="geometry" />
        </mxCell>
        <mxCell id="h9T01SDBne9uhSM7r6di-16" value="&lt;div&gt;Titre du livre&lt;/div&gt;" style="text;html=1;strokeColor=none;fillColor=none;align=left;verticalAlign=middle;whiteSpace=wrap;rounded=0;" vertex="1" parent="1">
          <mxGeometry x="120" y="217" width="200" height="30" as="geometry" />
        </mxCell>
        <mxCell id="h9T01SDBne9uhSM7r6di-25" value="&lt;div style=&quot;font-size: 8px;&quot;&gt;Libre&lt;/div&gt;" style="text;html=1;strokeColor=none;fillColor=none;align=left;verticalAlign=middle;whiteSpace=wrap;rounded=0;fontSize=8;" vertex="1" parent="1">
          <mxGeometry x="120" y="240" width="60" height="30" as="geometry" />
        </mxCell>
        <mxCell id="h9T01SDBne9uhSM7r6di-28" value="" style="rounded=0;whiteSpace=wrap;html=1;" vertex="1" parent="1">
          <mxGeometry x="60" y="280" width="260" height="50" as="geometry" />
        </mxCell>
        <mxCell id="h9T01SDBne9uhSM7r6di-29" value="" style="ellipse;whiteSpace=wrap;html=1;aspect=fixed;" vertex="1" parent="1">
          <mxGeometry x="60" y="280" width="50" height="50" as="geometry" />
        </mxCell>
        <mxCell id="h9T01SDBne9uhSM7r6di-30" value="Image" style="text;html=1;strokeColor=none;fillColor=none;align=center;verticalAlign=middle;whiteSpace=wrap;rounded=0;" vertex="1" parent="1">
          <mxGeometry x="70" y="295" width="30" height="20" as="geometry" />
        </mxCell>
        <mxCell id="h9T01SDBne9uhSM7r6di-31" value="&lt;div&gt;Titre du livre&lt;/div&gt;" style="text;html=1;strokeColor=none;fillColor=none;align=left;verticalAlign=middle;whiteSpace=wrap;rounded=0;" vertex="1" parent="1">
          <mxGeometry x="120" y="277" width="200" height="30" as="geometry" />
        </mxCell>
        <mxCell id="h9T01SDBne9uhSM7r6di-32" value="&lt;div style=&quot;font-size: 8px;&quot;&gt;Libre&lt;/div&gt;" style="text;html=1;strokeColor=none;fillColor=none;align=left;verticalAlign=middle;whiteSpace=wrap;rounded=0;fontSize=8;" vertex="1" parent="1">
          <mxGeometry x="120" y="300" width="60" height="30" as="geometry" />
        </mxCell>
        <mxCell id="h9T01SDBne9uhSM7r6di-33" value="" style="rounded=0;whiteSpace=wrap;html=1;" vertex="1" parent="1">
          <mxGeometry x="60" y="340" width="260" height="50" as="geometry" />
        </mxCell>
        <mxCell id="h9T01SDBne9uhSM7r6di-34" value="" style="ellipse;whiteSpace=wrap;html=1;aspect=fixed;" vertex="1" parent="1">
          <mxGeometry x="60" y="340" width="50" height="50" as="geometry" />
        </mxCell>
        <mxCell id="h9T01SDBne9uhSM7r6di-35" value="Image" style="text;html=1;strokeColor=none;fillColor=none;align=center;verticalAlign=middle;whiteSpace=wrap;rounded=0;" vertex="1" parent="1">
          <mxGeometry x="70" y="355" width="30" height="20" as="geometry" />
        </mxCell>
        <mxCell id="h9T01SDBne9uhSM7r6di-36" value="&lt;div&gt;Titre du livre&lt;/div&gt;" style="text;html=1;strokeColor=none;fillColor=none;align=left;verticalAlign=middle;whiteSpace=wrap;rounded=0;" vertex="1" parent="1">
          <mxGeometry x="120" y="337" width="200" height="30" as="geometry" />
        </mxCell>
        <mxCell id="h9T01SDBne9uhSM7r6di-37" value="Prêté à : Boris Shaffner" style="text;html=1;strokeColor=none;fillColor=none;align=left;verticalAlign=middle;whiteSpace=wrap;rounded=0;fontSize=8;" vertex="1" parent="1">
          <mxGeometry x="120" y="353" width="90" height="30" as="geometry" />
        </mxCell>
        <mxCell id="h9T01SDBne9uhSM7r6di-38" value="" style="sketch=0;pointerEvents=1;shadow=0;dashed=0;html=1;strokeColor=none;fillColor=#505050;labelPosition=center;verticalLabelPosition=bottom;verticalAlign=top;outlineConnect=0;align=center;shape=mxgraph.office.concepts.home;" vertex="1" parent="1">
          <mxGeometry x="110" y="558" width="20" height="16" as="geometry" />
        </mxCell>
        <mxCell id="h9T01SDBne9uhSM7r6di-39" value="Depuis le : 08.05.2022" style="text;html=1;strokeColor=none;fillColor=none;align=left;verticalAlign=middle;whiteSpace=wrap;rounded=0;fontSize=8;" vertex="1" parent="1">
          <mxGeometry x="120" y="365" width="90" height="30" as="geometry" />
        </mxCell>
        <mxCell id="h9T01SDBne9uhSM7r6di-41" value="" style="shape=image;verticalLabelPosition=bottom;labelBackgroundColor=default;verticalAlign=top;aspect=fixed;imageAspect=0;image=https://icons.veryicon.com/png/o/miscellaneous/x/book-entry.png;" vertex="1" parent="1">
          <mxGeometry x="235" y="551.5" width="29" height="29" as="geometry" />
        </mxCell>
        <mxCell id="h9T01SDBne9uhSM7r6di-44" value="" style="verticalLabelPosition=bottom;verticalAlign=top;html=1;shadow=0;dashed=0;strokeWidth=1;shape=mxgraph.android.phone2;strokeColor=#c0c0c0;" vertex="1" parent="1">
          <mxGeometry x="437" y="131" width="300" height="500" as="geometry" />
        </mxCell>
        <mxCell id="h9T01SDBne9uhSM7r6di-46" value="" style="endArrow=none;html=1;rounded=0;exitX=0.037;exitY=0.827;exitDx=0;exitDy=0;exitPerimeter=0;entryX=0.965;entryY=0.828;entryDx=0;entryDy=0;entryPerimeter=0;" edge="1" parent="1">
          <mxGeometry width="50" height="50" relative="1" as="geometry">
            <mxPoint x="447.5" y="544" as="sourcePoint" />
            <mxPoint x="726.5" y="544" as="targetPoint" />
          </mxGeometry>
        </mxCell>
        <mxCell id="h9T01SDBne9uhSM7r6di-47" value="" style="sketch=0;pointerEvents=1;shadow=0;dashed=0;html=1;strokeColor=none;fillColor=#505050;labelPosition=center;verticalLabelPosition=bottom;verticalAlign=top;outlineConnect=0;align=center;shape=mxgraph.office.concepts.home;" vertex="1" parent="1">
          <mxGeometry x="506.5" y="558" width="20" height="16" as="geometry" />
        </mxCell>
        <mxCell id="h9T01SDBne9uhSM7r6di-48" value="" style="shape=image;verticalLabelPosition=bottom;labelBackgroundColor=default;verticalAlign=top;aspect=fixed;imageAspect=0;image=https://icons.veryicon.com/png/o/miscellaneous/x/book-entry.png;" vertex="1" parent="1">
          <mxGeometry x="631.5" y="551.5" width="29" height="29" as="geometry" />
        </mxCell>
        <mxCell id="h9T01SDBne9uhSM7r6di-49" value="&lt;font style=&quot;font-size: 18px;&quot;&gt;Nouveau livre&lt;br&gt;&lt;/font&gt;" style="text;html=1;strokeColor=none;fillColor=none;align=center;verticalAlign=middle;whiteSpace=wrap;rounded=0;" vertex="1" parent="1">
          <mxGeometry x="522" y="180" width="130" height="30" as="geometry" />
        </mxCell>
        <mxCell id="h9T01SDBne9uhSM7r6di-51" value="Livre" style="fillColor=none;strokeColor=none;html=1;fontSize=11;fontStyle=0;align=left;fontColor=#596780;fontStyle=1;fontSize=11" vertex="1" parent="1">
          <mxGeometry x="460.5" y="217" width="240" height="20" as="geometry" />
        </mxCell>
        <mxCell id="h9T01SDBne9uhSM7r6di-52" value="" style="rounded=1;arcSize=9;fillColor=#F7F8F9;align=left;spacingLeft=5;strokeColor=#DEE1E6;html=1;strokeWidth=2;fontSize=12" vertex="1" parent="1">
          <mxGeometry x="460.5" y="242" width="249.5" height="18" as="geometry" />
        </mxCell>
        <mxCell id="h9T01SDBne9uhSM7r6di-54" value="ISBN" style="fillColor=none;strokeColor=none;html=1;fontSize=11;fontStyle=0;align=left;fontColor=#596780;fontStyle=1;fontSize=11" vertex="1" parent="1">
          <mxGeometry x="460.5" y="280" width="240" height="20" as="geometry" />
        </mxCell>
        <mxCell id="h9T01SDBne9uhSM7r6di-55" value="" style="rounded=1;arcSize=9;fillColor=#F7F8F9;align=left;spacingLeft=5;strokeColor=#DEE1E6;html=1;strokeWidth=2;fontSize=12" vertex="1" parent="1">
          <mxGeometry x="460.5" y="305" width="249.5" height="18" as="geometry" />
        </mxCell>
        <mxCell id="h9T01SDBne9uhSM7r6di-57" value="Ajouter" style="rounded=1;html=1;shadow=0;dashed=0;whiteSpace=wrap;fontSize=10;fillColor=#666666;align=center;strokeColor=#4D4D4D;fontColor=#ffffff;" vertex="1" parent="1">
          <mxGeometry x="462" y="500" width="250" height="26.88" as="geometry" />
        </mxCell>
        <mxCell id="h9T01SDBne9uhSM7r6di-58" value="Image du livre" style="fillColor=none;strokeColor=none;html=1;fontSize=11;fontStyle=0;align=left;fontColor=#596780;fontStyle=1;fontSize=11" vertex="1" parent="1">
          <mxGeometry x="460.5" y="343.5" width="240" height="20" as="geometry" />
        </mxCell>
        <mxCell id="h9T01SDBne9uhSM7r6di-59" value="" style="rounded=1;arcSize=9;fillColor=#F7F8F9;align=left;spacingLeft=5;strokeColor=#DEE1E6;html=1;strokeWidth=2;fontSize=12" vertex="1" parent="1">
          <mxGeometry x="460.5" y="368.5" width="249.5" height="18" as="geometry" />
        </mxCell>
        <mxCell id="h9T01SDBne9uhSM7r6di-60" value="&lt;div&gt;Tous&lt;/div&gt;" style="text;html=1;strokeColor=none;fillColor=none;align=center;verticalAlign=middle;whiteSpace=wrap;rounded=0;fontStyle=4" vertex="1" parent="1">
          <mxGeometry x="90" y="475" width="60" height="30" as="geometry" />
        </mxCell>
        <mxCell id="h9T01SDBne9uhSM7r6di-61" value="Loué" style="text;html=1;strokeColor=none;fillColor=none;align=center;verticalAlign=middle;whiteSpace=wrap;rounded=0;" vertex="1" parent="1">
          <mxGeometry x="219.5" y="475" width="60" height="30" as="geometry" />
        </mxCell>
        <mxCell id="h9T01SDBne9uhSM7r6di-88" value="" style="verticalLabelPosition=bottom;verticalAlign=top;html=1;shadow=0;dashed=0;strokeWidth=1;shape=mxgraph.android.phone2;strokeColor=#c0c0c0;" vertex="1" parent="1">
          <mxGeometry x="40" y="663" width="300" height="500" as="geometry" />
        </mxCell>
        <mxCell id="h9T01SDBne9uhSM7r6di-89" value="&lt;font style=&quot;font-size: 18px;&quot;&gt;Location&lt;/font&gt;" style="text;html=1;strokeColor=none;fillColor=none;align=center;verticalAlign=middle;whiteSpace=wrap;rounded=0;" vertex="1" parent="1">
          <mxGeometry x="145" y="720" width="90" height="30" as="geometry" />
        </mxCell>
        <mxCell id="h9T01SDBne9uhSM7r6di-90" value="Louer / Rendu" style="rounded=1;html=1;shadow=0;dashed=0;whiteSpace=wrap;fontSize=10;fillColor=#666666;align=center;strokeColor=#4D4D4D;fontColor=#ffffff;" vertex="1" parent="1">
          <mxGeometry x="65" y="1030" width="250" height="26.88" as="geometry" />
        </mxCell>
        <mxCell id="h9T01SDBne9uhSM7r6di-91" value="" style="endArrow=none;html=1;rounded=0;exitX=0.037;exitY=0.827;exitDx=0;exitDy=0;exitPerimeter=0;entryX=0.965;entryY=0.828;entryDx=0;entryDy=0;entryPerimeter=0;" edge="1" parent="1">
          <mxGeometry width="50" height="50" relative="1" as="geometry">
            <mxPoint x="50.5" y="1078" as="sourcePoint" />
            <mxPoint x="329.5" y="1078" as="targetPoint" />
          </mxGeometry>
        </mxCell>
        <mxCell id="h9T01SDBne9uhSM7r6di-92" value="" style="sketch=0;pointerEvents=1;shadow=0;dashed=0;html=1;strokeColor=none;fillColor=#505050;labelPosition=center;verticalLabelPosition=bottom;verticalAlign=top;outlineConnect=0;align=center;shape=mxgraph.office.concepts.home;" vertex="1" parent="1">
          <mxGeometry x="109.5" y="1092" width="20" height="16" as="geometry" />
        </mxCell>
        <mxCell id="h9T01SDBne9uhSM7r6di-93" value="" style="shape=image;verticalLabelPosition=bottom;labelBackgroundColor=default;verticalAlign=top;aspect=fixed;imageAspect=0;image=https://icons.veryicon.com/png/o/miscellaneous/x/book-entry.png;" vertex="1" parent="1">
          <mxGeometry x="234.5" y="1085.5" width="29" height="29" as="geometry" />
        </mxCell>
        <mxCell id="h9T01SDBne9uhSM7r6di-95" value="" style="rounded=1;arcSize=9;fillColor=#f3f3f3;align=left;spacingLeft=5;strokeColor=#dee1e6;html=1;strokeWidth=2;fontColor=#253858;fontSize=12" vertex="1" parent="1">
          <mxGeometry x="65" y="882" width="250" height="20" as="geometry" />
        </mxCell>
        <mxCell id="h9T01SDBne9uhSM7r6di-96" value="" style="shape=mxgraph.gmdl.calendar;fillColor=#253858;strokeColor=none" vertex="1" parent="h9T01SDBne9uhSM7r6di-95">
          <mxGeometry x="1" y="0.5" width="18" height="18" relative="1" as="geometry">
            <mxPoint x="-29" y="-9" as="offset" />
          </mxGeometry>
        </mxCell>
        <mxCell id="h9T01SDBne9uhSM7r6di-150" value="Loué le" style="fillColor=none;strokeColor=none;html=1;fontSize=11;fontStyle=0;align=left;fontColor=#596780;fontStyle=1;fontSize=11" vertex="1" parent="1">
          <mxGeometry x="64" y="860" width="255" height="20" as="geometry" />
        </mxCell>
        <mxCell id="h9T01SDBne9uhSM7r6di-151" value="Loué à" style="fillColor=none;strokeColor=none;html=1;fontSize=11;fontStyle=0;align=left;fontColor=#596780;fontStyle=1;fontSize=11" vertex="1" parent="1">
          <mxGeometry x="65.5" y="797" width="240" height="20" as="geometry" />
        </mxCell>
        <mxCell id="h9T01SDBne9uhSM7r6di-152" value="" style="rounded=1;arcSize=9;fillColor=#F7F8F9;align=left;spacingLeft=5;strokeColor=#DEE1E6;html=1;strokeWidth=2;fontSize=12" vertex="1" parent="1">
          <mxGeometry x="65.5" y="822" width="249.5" height="18" as="geometry" />
        </mxCell>
        <mxCell id="h9T01SDBne9uhSM7r6di-153" value="" style="endArrow=classic;html=1;rounded=0;exitX=1;exitY=0;exitDx=0;exitDy=0;" edge="1" parent="1" source="h9T01SDBne9uhSM7r6di-90">
          <mxGeometry width="50" height="50" relative="1" as="geometry">
            <mxPoint x="350" y="1030" as="sourcePoint" />
            <mxPoint x="400" y="980" as="targetPoint" />
          </mxGeometry>
        </mxCell>
        <mxCell id="h9T01SDBne9uhSM7r6di-154" value="" style="ellipse;shape=cloud;whiteSpace=wrap;html=1;" vertex="1" parent="1">
          <mxGeometry x="381.5" y="890" width="288.5" height="170" as="geometry" />
        </mxCell>
        <mxCell id="h9T01SDBne9uhSM7r6di-155" value="Ce bouton change si le livre est loué. Si il l&#39;est alors on pourra cliquer sur &quot;Rendu&quot; pour supprimer la location, autrement on pourra appuyer sur &quot;Louer&quot; pour louer le livre" style="text;html=1;strokeColor=none;fillColor=none;spacing=5;spacingTop=-20;whiteSpace=wrap;overflow=hidden;rounded=0;" vertex="1" parent="1">
          <mxGeometry x="450" y="950" width="190" height="120" as="geometry" />
        </mxCell>
        <mxCell id="h9T01SDBne9uhSM7r6di-156" value="" style="endArrow=classic;html=1;rounded=0;exitX=1;exitY=0.5;exitDx=0;exitDy=0;entryX=0.076;entryY=0.486;entryDx=0;entryDy=0;entryPerimeter=0;" edge="1" parent="1" source="h9T01SDBne9uhSM7r6di-152" target="h9T01SDBne9uhSM7r6di-158">
          <mxGeometry width="50" height="50" relative="1" as="geometry">
            <mxPoint x="300" y="810" as="sourcePoint" />
            <mxPoint x="460" y="780" as="targetPoint" />
          </mxGeometry>
        </mxCell>
        <mxCell id="h9T01SDBne9uhSM7r6di-157" value="Ce champ est une barre de recherche dans nos contacte." style="text;html=1;strokeColor=none;fillColor=none;spacing=5;spacingTop=-20;whiteSpace=wrap;overflow=hidden;rounded=0;" vertex="1" parent="1">
          <mxGeometry x="480" y="811" width="190" height="40" as="geometry" />
        </mxCell>
        <mxCell id="h9T01SDBne9uhSM7r6di-160" value="Titre du livre" style="text;html=1;strokeColor=none;fillColor=none;align=center;verticalAlign=middle;whiteSpace=wrap;rounded=0;" vertex="1" parent="1">
          <mxGeometry x="145.25" y="740" width="90" height="30" as="geometry" />
        </mxCell>
        <mxCell id="h9T01SDBne9uhSM7r6di-163" value="" style="shape=image;html=1;verticalAlign=top;verticalLabelPosition=bottom;labelBackgroundColor=#ffffff;imageAspect=0;aspect=fixed;image=https://cdn0.iconfinder.com/data/icons/glyphpack/19/edit-128.png" vertex="1" parent="1">
          <mxGeometry x="305.5" y="714" width="18" height="18" as="geometry" />
        </mxCell>
        <mxCell id="h9T01SDBne9uhSM7r6di-164" value="" style="endArrow=classic;html=1;rounded=0;exitX=1;exitY=0.5;exitDx=0;exitDy=0;entryX=0.01;entryY=0.938;entryDx=0;entryDy=0;entryPerimeter=0;" edge="1" parent="1" target="h9T01SDBne9uhSM7r6di-44">
          <mxGeometry width="50" height="50" relative="1" as="geometry">
            <mxPoint x="315" y="716" as="sourcePoint" />
            <mxPoint x="434" y="700" as="targetPoint" />
          </mxGeometry>
        </mxCell>
        <mxCell id="h9T01SDBne9uhSM7r6di-167" value="" style="shape=image;html=1;verticalAlign=top;verticalLabelPosition=bottom;labelBackgroundColor=#ffffff;imageAspect=0;aspect=fixed;image=https://cdn4.iconfinder.com/data/icons/ionicons/512/icon-arrow-left-c-128.png" vertex="1" parent="1">
          <mxGeometry x="60" y="732" width="27" height="27" as="geometry" />
        </mxCell>
      </root>
    </mxGraphModel>
  </diagram>
</mxfile>
